<svg
        xmlns="http://www.w3.org/2000/svg"
        width="173.89"
        height="68.11"
        version="1.1"
      >
        <g transform="translate(-311.2 -454.448)">
          <g transform="matrix(1.25 0 0 -1.25 345.546 521.556)">
            <path
              fill="#e31b23"
              fillOpacity="1"
              fillRule="nonzero"
              stroke="none"
              d="M0 0h-21.309c-2.966 0-5.366 2.324-5.366 5.288V37.25c0 3.05 2.4 5.379 5.366 5.379H0c2.968 0 5.296-2.329 5.296-5.379v-8.728l-10.175 1.286v4.581h-11.626V8.263h11.626v4.839l10.175 1.284V5.288C5.296 2.324 2.968 0 0 0m30.455 17.594H18.52V8.248h11.935v9.346zM35.185 0H13.867c-2.96 0-5.366 2.323-5.366 5.287V20.88c0 2.883 2.486 4.961 5.366 4.961h16.588v8.526H18.52v-4.559L8.501 28.522v8.736c0 3.042 2.406 5.37 5.366 5.37h21.318c2.961 0 5.283-2.328 5.283-5.084V5.566C40.468 2.323 38.146 0 35.185 0"
            ></path>
          </g>
          <g transform="matrix(1.25 0 0 -1.25 433.49 521.556)">
            <path
              fill="#e31b23"
              fillOpacity="1"
              fillRule="nonzero"
              stroke="none"
              d="M0 0h-21.313c-2.961 0-5.366 2.324-5.366 5.288v9.098l10.177-1.284V8.248h11.62v9.346h-16.431c-2.961 0-5.366 2.327-5.366 5.283V37.25c0 3.05 2.405 5.379 5.366 5.379H0c2.969 0 5.286-2.329 5.286-5.379v-8.728l-10.168 1.286v4.559h-11.62v-8.505H0c2.969 0 5.286-2.326 5.286-5.377V5.288C5.286 2.324 2.969 0 0 0"
            ></path>
          </g>
          <g transform="matrix(1.25 0 0 -1.25 484.088 521.556)">
            <path
              fill="#e31b23"
              fillOpacity="1"
              fillRule="nonzero"
              stroke="none"
              d="M0 0v37.738c0 2.885-2.493 4.891-5.379 4.891h-16.345v10.256h-10.257V0h10.257v34.389h11.456V0H0z"
            ></path>
          </g>
        </g>
      </svg>