<?xml version="1.0" encoding="UTF-8"?><svg xmlns="http://www.w3.org/2000/svg" xmlns:xlink="http://www.w3.org/1999/xlink"><symbol viewBox="0 0 100 100" id="add" xmlns="http://www.w3.org/2000/svg"><path d="m52.48 18.062-.001 29.276h28.364v5.303H52.479v29.297h-5.323V52.641H17.347v-5.303h29.809V18.062h5.323Z" fill-rule="nonzero"/></symbol><symbol viewBox="0 0 100 100" id="arrow-down" xmlns="http://www.w3.org/2000/svg"><path d="M49.984 56.473 29.258 36.568c-.512-.5-1.358-.488-1.881.024l-3.643 3.56c-.524.512-.536 1.345-.024 1.845l25.31 24.31c.261.261.619.38.964.357.357.012.702-.107.964-.357l25.321-24.31c.512-.5.5-1.333-.023-1.845l-3.643-3.56c-.524-.512-1.37-.524-1.881-.024L49.984 56.473Z" fill-rule="nonzero"/></symbol><symbol viewBox="0 0 100 100" id="arrow-up" xmlns="http://www.w3.org/2000/svg"><path d="m51.44 44.97 20.726 19.906c.512.5 1.357.488 1.88-.024l3.644-3.56c.523-.512.535-1.345.023-1.845l-25.309-24.31a1.243 1.243 0 0 0-.964-.357 1.317 1.317 0 0 0-.965.357l-25.321 24.31c-.512.5-.5 1.333.024 1.845l3.643 3.56c.523.512 1.369.524 1.88.024L51.44 44.97Z" fill-rule="nonzero"/></symbol><symbol viewBox="0 0 75 100" id="author-video" xmlns="http://www.w3.org/2000/svg"><path d="M49.164 39.186h9.777v10.41l14.641-4.351V74.69l-14.641-4.35v8.49H1.736V39.185h8.44c-1.886-2.31-3.022-5.32-3.022-8.6 0-7.23 5.528-13.156 12.43-13.156 4.168 0 7.835 2.16 10.086 5.465 2.25-3.304 5.918-5.465 10.086-5.465 6.902 0 12.43 5.925 12.43 13.157 0 3.278-1.137 6.288-3.022 8.6Zm-18.817 0a13.137 13.137 0 0 1-.677-.908c-.214.313-.44.616-.678.908h1.355Zm-3.021-8.495a14.18 14.18 0 0 1 0-.209c-.051-4.663-3.535-8.364-7.741-8.364-4.239 0-7.744 3.756-7.744 8.469 0 4.712 3.505 8.468 7.744 8.468 4.206 0 7.69-3.701 7.74-8.364ZM58.94 65.449l9.954 2.958v-16.88l-9.954 2.958V65.45Zm-4.688 8.693V43.874H6.423v30.268h47.83Zm-6.755-43.555c0-4.713-3.504-8.47-7.742-8.47-4.239 0-7.743 3.757-7.743 8.47 0 4.712 3.504 8.468 7.743 8.468 4.238 0 7.742-3.756 7.742-8.468Z" fill="#E20000" fill-rule="nonzero"/></symbol><symbol viewBox="0 0 25.6 16" id="blick-plus-logo" xmlns="http://www.w3.org/2000/svg"><path fill="#e10714" d="M0 0h25.6v16H0z"/><path fill="#fff" d="M8.14 7.74c.64-.3 1.19-.94 1.19-1.86 0-1.48-1.08-2.44-3.16-2.44H3.2v9.13h3.43c2.04 0 3.27-1.03 3.27-2.63 0-1.09-.76-1.91-1.76-2.21ZM5.2 5.09h.88c.8 0 1.32.38 1.32 1.07s-.51 1.06-1.32 1.06H5.2V5.09Zm1.29 5.82H5.2V8.7h1.3c.84 0 1.36.45 1.36 1.1 0 .66-.54 1.1-1.37 1.1ZM12.29 1.48h.43v13.04h-.43zM22.34 7.6h-3.21V4.39h-.79V7.6h-3.22v.8h3.22v3.21h.79V8.4h3.21v-.8z"/></symbol><symbol viewBox="0 0 164 100" id="blicklogo" xmlns="http://www.w3.org/2000/svg"><defs><path id="aga" d="M0 98.322h163.675V.071H0z"/></defs><g fill="none" fill-rule="evenodd"><mask id="agb" fill="#fff"><use xlink:href="#aga"/></mask><path d="M106.186 53.252c3.761 0 7.18.489 9.713 1.12l-1.711 10.35c-1.984-.35-4.17-.698-8.138-.698-5.403 0-6.156 1.398-6.156 6.924 0 5.454.889 7.482 6.292 7.482 3.42 0 5.062-.419 8.002-1.049l1.71 10.072c-2.736.84-6.907 1.328-10.19 1.328-13.201 0-18.603-2.797-18.603-17.694 0-14.897 5.54-17.835 19.081-17.835ZM67.887 35.418v52.875H55.165V35.418h12.722ZM32.87 36.816c11.833 0 18.124 2.098 18.124 12.729 0 8.112-2.94 10.63-7.66 11.96 4.652.98 8.96 3.707 8.96 12.31 0 10.77-4.856 14.478-18.125 14.478H9.82V36.816h23.05Zm98.143-1.4v29.517l10.26-10.562h11.831l-11.216 11.75c0-.031 2.364 4.345 4.991 9.217l.396.734.199.369.398.74c2.993 5.551 5.985 11.111 5.985 11.111H140.04l-7.044-13.01s-.82.91-1.984 2.1v10.91h-12.72V35.417h12.72ZM84.507 54.37v33.921H71.785v-33.92h12.722ZM34.168 67.03h-11.08v10.63h11.08c2.805 0 4.65-1.188 4.65-5.243 0-4.058-1.845-5.386-4.65-5.386ZM32.87 47.728h-9.78v9.442h9.78c2.805 0 4.65-.77 4.65-4.826 0-4.057-1.845-4.616-4.65-4.616Zm51.638-9.792v12.45H71.785v-12.45h12.722Z" fill="#FEFEFE" mask="url(#agb)"/></g></symbol><symbol viewBox="0 0 166 100" id="blicklogo-inverted" xmlns="http://www.w3.org/2000/svg"><path d="M165.192.074v99.72H0V.075h165.192ZM107.171 54.05c-13.667 0-19.259 2.983-19.259 18.102 0 15.12 5.452 17.959 18.776 17.959 3.313 0 7.523-.496 10.285-1.349l-1.727-10.222c-2.967.64-4.624 1.065-8.075 1.065-5.454 0-6.352-2.059-6.352-7.594 0-5.609.76-7.028 6.214-7.028 4.004 0 6.211.355 8.213.709l1.727-10.506c-2.555-.64-6.007-1.136-9.802-1.136Zm-38.655-18.1h-12.84v53.666h12.84V35.95Zm-35.342 1.418H9.91v52.247h24.574c13.391 0 18.293-3.763 18.293-14.694 0-8.732-4.349-11.5-9.044-12.494 4.764-1.35 7.731-3.905 7.731-12.14 0-10.789-6.349-12.919-18.291-12.919Zm99.052-1.42h-12.838v53.667h12.838V78.54c1.175-1.206 2.002-2.13 2.002-2.13l7.11 13.205h13.944s-12.08-22.574-12.08-22.504l11.32-11.925h-11.94l-10.356 10.72V35.95ZM85.29 55.186H72.45v34.429h12.84V55.185Zm-50.805 12.85c2.83 0 4.694 1.349 4.694 5.466s-1.863 5.323-4.694 5.323H23.303V68.035Zm-1.311-19.592c2.83 0 4.693.567 4.693 4.685 0 4.116-1.862 4.898-4.693 4.898h-9.871v-9.583Zm52.116-9.938H72.45V51.14h12.84V38.505Z" fill="#FFF" fill-rule="evenodd"/></symbol><symbol viewBox="0 0 40 40" id="burger-menu" xmlns="http://www.w3.org/2000/svg"><path d="M32 29.2H8V28h24v1.2ZM32 20.2H8V19h24v1.2ZM32 11.2H8V10h24v1.2Z"/></symbol><symbol fill="none" viewBox="0 0 18 18" id="chatbubble-outline" xmlns="http://www.w3.org/2000/svg"><path clip-rule="evenodd" d="M9.106 16.576C4.632 16.576 1 13.072 1 8.735 1 4.4 4.634.894 9.106.894c4.475 0 8.106 3.51 8.099 7.848 0 1.526-.453 2.988-1.324 4.288a.542.542 0 0 0-.1.25l.78 3.123a.566.566 0 0 1-.744.668l-3.075-1.132a.602.602 0 0 0-.423-.004 8.38 8.38 0 0 1-3.213.641Z"/></symbol><symbol fill="none" viewBox="0 0 24 24" id="close-round" xmlns="http://www.w3.org/2000/svg"><mask id="aja" style="mask-type:alpha" maskUnits="userSpaceOnUse" x="0" y="0" width="24" height="24"><path fill="#D9D9D9" d="M0 0h24v24H0z"/></mask><g mask="url(#aja)" fill="#8E8E8E"><path d="M12.002 21.5a9.255 9.255 0 0 1-3.705-.748 9.598 9.598 0 0 1-3.018-2.03 9.591 9.591 0 0 1-2.03-3.016 9.245 9.245 0 0 1-.749-3.704c0-1.314.25-2.55.748-3.705a9.597 9.597 0 0 1 2.03-3.018 9.592 9.592 0 0 1 3.016-2.03 9.245 9.245 0 0 1 3.704-.749c1.314 0 2.55.25 3.705.748a9.597 9.597 0 0 1 3.018 2.03 9.592 9.592 0 0 1 2.03 3.016 9.245 9.245 0 0 1 .749 3.704c0 1.314-.25 2.55-.748 3.705a9.598 9.598 0 0 1-2.03 3.018 9.592 9.592 0 0 1-3.016 2.03 9.245 9.245 0 0 1-3.704.749ZM12 20c2.233 0 4.125-.775 5.675-2.325C19.225 16.125 20 14.233 20 12c0-2.233-.775-4.125-2.325-5.675C16.125 4.775 14.233 4 12 4c-2.233 0-4.125.775-5.675 2.325C4.775 7.875 4 9.767 4 12c0 2.233.775 4.125 2.325 5.675C7.875 19.225 9.767 20 12 20Z"/><path d="M12 10.943 13.943 9 15 10.057 13.057 12 15 13.943 13.943 15 12 13.057 10.057 15 9 13.943 10.943 12 9 10.057 10.057 9 12 10.943Z"/></g></symbol><symbol viewBox="0 0 69 100" id="comment" xmlns="http://www.w3.org/2000/svg"><path d="M33.594 81.4C15.054 81.4 0 66.877 0 48.903 0 30.94 15.059 16.406 33.594 16.406c18.546 0 33.596 14.545 33.563 32.527 0 6.323-1.877 12.383-5.487 17.77a3.13 3.13 0 0 0-.143.215c-.148.264-.241.543-.275.82l3.236 12.944c.457 1.825-1.316 3.417-3.083 2.768l-12.74-4.691a2.232 2.232 0 0 0-.889-.168c-.3 0-.595.053-.866.154-4.32 1.774-8.76 2.655-13.316 2.655Zm25.272-3.879-2.246-8.984-.07-.568c0-1.175.315-2.318.934-3.422.237-.385.355-.564.423-.63 2.966-4.442 4.563-9.597 4.563-14.988.028-15.356-12.885-27.835-28.876-27.835-15.983 0-28.907 12.473-28.907 27.81 0 15.346 12.918 27.809 28.907 27.809 3.945 0 7.78-.762 11.166-2.142.189-.094.366-.166.563-.232.239-.08.489-.12.74-.12-.072-.013-.072-.013-.72.118-1.204.672-1.204.672-1.593 2.21 0-.98.61-1.856 1.528-2.197a7.183 7.183 0 0 1 2.498-.447c.963 0 1.895.184 2.628.505l8.462 3.113Z" fill="#E20000" fill-rule="nonzero"/></symbol><symbol viewBox="-0.76 53.11 36.4 25.71" id="comment-arrow" xmlns="http://www.w3.org/2000/svg"><path d="M20.586 74.728a2 2 0 0 0 2.828 2.828L34.971 66 23.414 54.444a2 2 0 1 0-2.828 2.828L29.314 66l-8.728 8.728z"/><path d="M4 56a2 2 0 1 0-4 0v12h31.555a2 2 0 1 0 0-4H4v-8z"/></symbol><symbol viewBox="0 0 100 100" id="copy" xmlns="http://www.w3.org/2000/svg"><path d="M100 0v100H0V0h100ZM63.889 33.333H30.556v44.445h33.333V33.333ZM72.222 25H38.89v2.778l30.555-.001v44.445h2.778V25Z" fill="#919191" fill-rule="evenodd"/></symbol><symbol viewBox="0 0 19 18" id="copy-plain" xmlns="http://www.w3.org/2000/svg"><path d="m8.593 13.22-2.05 2.05a2.682 2.682 0 0 1-3.814 0 2.681 2.681 0 0 1 0-3.812l2.05-2.05A.966.966 0 1 0 3.414 8.04l-2.05 2.05a4.614 4.614 0 0 0 0 6.548 4.614 4.614 0 0 0 6.547 0l2.05-2.05a.966.966 0 1 0-1.367-1.367ZM10.104 1.349l-2.05 2.05A.966.966 0 1 0 9.42 4.766l2.05-2.05a2.681 2.681 0 0 1 3.814 0 2.682 2.682 0 0 1 0 3.813l-2.05 2.05A.966.966 0 1 0 14.6 9.948l2.05-2.05a4.614 4.614 0 0 0 0-6.548c-1.817-1.799-4.748-1.799-6.547 0Z"/><path d="m11.777 7.644-4.12 4.12a.956.956 0 0 1-1.33 0l-.09-.09a.956.956 0 0 1 0-1.332l4.119-4.119a.956.956 0 0 1 1.33 0l.09.09c.36.36.36.953 0 1.331Z"/></symbol><symbol viewBox="0 0 18 18" id="critical" xmlns="http://www.w3.org/2000/svg"><path fill-rule="evenodd" clip-rule="evenodd" d="M1.6 9a7.4 7.4 0 1 1 14.8 0A7.4 7.4 0 0 1 1.6 9ZM9 .4a8.6 8.6 0 1 0 0 17.2A8.6 8.6 0 0 0 9 .4Zm5 11.2c0-.331-.19-.6-.424-.6H4.424l-.028.001c-.221.02-.396.28-.396.599 0 .331.19.6.424.6h9.152l.028-.001c.221-.02.396-.28.396-.599Zm-3.692-7.163c1.048-1.016 2.17-1.106 3.316-.288.15.108.193.382.094.612-.098.231-.3.33-.452.223-.953-.68-1.818-.611-2.644.189-.158.153-.356.112-.443-.091a.624.624 0 0 1 .129-.645Zm-4.06-.185c-.734-.54-1.476-.202-2.164.935a.689.689 0 0 0 .012.681c.123.183.318.175.435-.018.53-.875 1.003-1.081 1.485-.704l.052.04c.69.517 1.308.503 1.809-.085.136-.16.163-.462.061-.675-.101-.213-.294-.256-.43-.096-.308.36-.697.36-1.217-.046l-.043-.032ZM7 7a1 1 0 1 1-2 0 1 1 0 0 1 2 0Zm5 1a1 1 0 1 0 0-2 1 1 0 0 0 0 2Z"/></symbol><symbol viewBox="0 0 18 18" id="dislike" xmlns="http://www.w3.org/2000/svg"><path fill-rule="evenodd" clip-rule="evenodd" d="M6.007.4h9.135l-4.433 6.435h4.836L3.405 17.943l-.908-.77L6.82 10.51H2.84L6.007.4Zm.882 1.2L4.473 9.31H9.03l-2.97 4.577 6.396-5.852h-4.03L12.857 1.6h-5.97Z"/></symbol><symbol viewBox="0 0 100 100" id="facebook" xmlns="http://www.w3.org/2000/svg"><path d="M100 0v100H66.21V61.667h11.55l1.556-12.778H66.211v-7.607c0-3.434.778-5.17 6.245-5.17h6.86V23.332H67.87c-14.026 0-18.654 6.27-18.654 17.03v8.526H40v12.778h9.215V100H0V0h100Z" fill="#3C5A99" fill-rule="nonzero"/></symbol><symbol viewBox="0 0 24 24" id="facebook-plain" xmlns="http://www.w3.org/2000/svg"><path d="M18.77 7.46H14.5v-1.9c0-.9.6-1.1 1-1.1h3V.5h-4.33C10.24.5 9.5 3.44 9.5 5.32v2.15h-3v4h3v12h5v-12h3.85l.42-4z"/></symbol><symbol viewBox="0 0 64 64" id="fullscreen-off" xmlns="http://www.w3.org/2000/svg"><g fill="#FFF" fill-rule="evenodd"><path d="m42.352 35.743 6.39 6.175-2.265 2.45-7.087-6.847v6.662h-3.069V32.99h.038v-.669h12.126v3.422h-6.133zM26.79 24.992l-6.39-6.175 2.265-2.45 7.087 6.847v-6.663h3.069v11.194h-.038v.669H20.657v-3.422h6.133z"/><path fill-rule="nonzero" d="M15.85 11.911v36.766h36.184V11.911H15.849zM16.62 8h34.644c2.551 0 4.62 2.101 4.62 4.694v35.201c0 2.592-2.069 4.694-4.62 4.694H16.619c-2.55 0-4.619-2.102-4.619-4.694V12.694C12 10.1 14.068 8 16.62 8z"/></g></symbol><symbol fill="none" viewBox="0 0 48 48" id="gallery-navigation-close" xmlns="http://www.w3.org/2000/svg"><path fill-rule="evenodd" clip-rule="evenodd" d="M23.061 23.91 15 31.97l.848.85 8.062-8.062 8.06 8.061.85-.848-8.062-8.061 8.061-8.062-.848-.848-8.061 8.061L15.848 15l-.848.848 8.061 8.062Z" fill="#fff"/></symbol><symbol viewBox="0 0 100 100" id="gallery-next" xmlns="http://www.w3.org/2000/svg"><path d="M56.473 50.016 36.568 70.742c-.5.512-.488 1.358.024 1.881l3.56 3.643c.512.524 1.345.536 1.845.024l24.31-25.31c.261-.261.38-.619.357-.964a1.317 1.317 0 0 0-.357-.964l-24.31-25.321c-.5-.512-1.333-.5-1.845.023l-3.56 3.643c-.512.524-.524 1.37-.024 1.881l19.905 20.738Z" fill-rule="nonzero"/></symbol><symbol viewBox="0 0 115 100" id="gallery-photo" xmlns="http://www.w3.org/2000/svg"><g transform="translate(0 6.25)" fill="#E20000" fill-rule="nonzero"><ellipse cx="55.34" cy="47.37" rx="15.564" ry="13.816"/><path d="m71.152 0 7.906 7.018h21.74c5.459 0 9.883 3.927 9.883 8.772v59.651c0 4.845-4.424 8.773-9.882 8.773H9.882C4.424 84.214 0 80.286 0 75.44v-59.65c0-4.846 4.424-8.773 9.882-8.773h21.741L39.53 0h31.623ZM55.34 22.808c-15.281 0-27.67 10.997-27.67 24.562 0 13.565 12.389 24.563 27.67 24.563 15.282 0 27.67-10.998 27.67-24.563S70.623 22.808 55.34 22.808Z"/></g></symbol><symbol viewBox="0 0 100 100" id="gallery-previous" xmlns="http://www.w3.org/2000/svg"><path d="m43.527 49.984 19.905-20.726c.5-.512.488-1.358-.024-1.881l-3.56-3.643c-.512-.524-1.345-.536-1.845-.024l-24.31 25.31a1.243 1.243 0 0 0-.357.964c-.012.357.107.702.357.964l24.31 25.321c.5.512 1.333.5 1.845-.023l3.56-3.643c.512-.524.524-1.37.024-1.881L43.527 49.984Z" fill-rule="nonzero"/></symbol><symbol viewBox="0 0 100 100" id="gallery-video" xmlns="http://www.w3.org/2000/svg"><path d="M61.036 18.75c4.47 0 7.918 3.353 7.918 7.775v44.677c0 4.423-3.448 8.418-7.918 8.418H8.488C4.018 79.62 0 75.625 0 71.202V26.525c0-4.422 4.018-7.775 8.488-7.775Zm38.353 7.609V72.01L76.087 59.314V38.96l23.302-12.602Z" fill="#E20000" fill-rule="nonzero"/></symbol><symbol viewBox="0 0 24 24" id="gdpr" xmlns="http://www.w3.org/2000/svg"><g clip-path="url(#aya)" fill-rule="evenodd" clip-rule="evenodd"><path d="M12 1.2C6.035 1.2 1.2 6.035 1.2 12c0 5.965 4.835 10.8 10.8 10.8 5.965 0 10.8-4.835 10.8-10.8 0-5.965-4.835-10.8-10.8-10.8ZM0 12C0 5.373 5.373 0 12 0s12 5.373 12 12-5.373 12-12 12S0 18.627 0 12Z"/><path d="m11.6 13.152 2.976-2.976.848.848L11.6 14.85l-2.024-2.025.848-.848L11.6 13.15Z"/><path d="M12.214 6.21C11.035 7.257 9.737 7.89 8.705 8.264a11.621 11.621 0 0 1-1.521.44c-.07 3.772 1.22 6.284 2.528 7.863a9.995 9.995 0 0 0 1.903 1.774c.232.165.429.287.574.371 2.816-1.698 4.075-4.237 4.63-6.41a13.528 13.528 0 0 0 .408-3.622 13.693 13.693 0 0 1-3.897-1.673 11.495 11.495 0 0 1-1.116-.797ZM17.8 8.2l.597-.063-.045-.43-.422-.093a12.526 12.526 0 0 1-3.96-1.621 10.24 10.24 0 0 1-1.02-.732 6.54 6.54 0 0 1-.325-.284l-.001-.002-.424-.424-.424.425c-1.12 1.119-2.434 1.78-3.481 2.16-.522.19-.971.308-1.288.378a7.41 7.41 0 0 1-.478.09h-.004l-.5.063L6 8.171c-.208 4.363 1.25 7.307 2.787 9.162.764.923 1.543 1.57 2.134 1.988a8.796 8.796 0 0 0 .936.579l.06.03.019.01.006.002.002.001.255-.543-.254.544.28.13.268-.151c3.385-1.904 4.86-4.869 5.487-7.325.313-1.226.418-2.334.444-3.135a12.663 12.663 0 0 0-.02-1.222 4.896 4.896 0 0 0-.005-.073l-.002-.021V8.14l-.001-.003-.597.062Z"/></g><defs><clipPath id="aya"><path fill="#fff" d="M0 0h24v24H0z"/></clipPath></defs></symbol><symbol class="azsvg-icon" style="width:1em;height:1em;vertical-align:middle;overflow:hidden" viewBox="0 0 1024 1024" id="gift" xmlns="http://www.w3.org/2000/svg"><path d="M550.857 358.857H891.43v118.857H550.857zM187.43 555.43h285.714v352H187.429zM132.57 358.857h340.572v118.857H132.57zM550.857 555.43h285.714v352H550.857z" fill="#fff"/><path d="M932.571 281.143H763.886c15.543-24.457 24.685-53.486 24.685-84.572 0-86.971-70.742-157.714-157.714-157.714-47.314 0-89.943 21.029-118.857 54.172-28.914-33.143-71.543-54.172-118.857-54.172-86.972 0-157.714 70.743-157.714 157.714 0 31.086 9.028 60.115 24.685 84.572H91.43c-20.229 0-36.572 16.343-36.572 36.571v228.572c0 5.028 4.114 9.143 9.143 9.143h45.714V948.57c0 20.229 16.343 36.572 36.572 36.572h731.428c20.229 0 36.572-16.343 36.572-36.572V555.43H960c5.029 0 9.143-4.115 9.143-9.143V317.714c0-20.228-16.343-36.571-36.572-36.571zM473.143 907.429H187.429v-352h285.714v352zm0-429.715H132.57V358.857h340.572v118.857zm0-201.143h-80c-44.114 0-80-35.885-80-80s35.886-80 80-80 80 35.886 80 80v80zm77.714-80c0-44.114 35.886-80 80-80s80 35.886 80 80-35.886 80-80 80h-80v-80zM836.571 907.43H550.857v-352h285.714v352zm54.858-429.715H550.857V358.857H891.43v118.857z"/></symbol><symbol viewBox="0 0 18 18" id="happy" xmlns="http://www.w3.org/2000/svg"><path fill-rule="evenodd" clip-rule="evenodd" d="M1.686 9a7.314 7.314 0 1 1 14.628 0A7.314 7.314 0 0 1 1.686 9ZM9 .5a8.5 8.5 0 1 0 0 17 8.5 8.5 0 0 0 0-17Zm5.93 7.907H2.477V9c0 3.723 3.014 6.523 6.516 6.523 3.254 0 6.53-2.514 6.53-6.523v-.593h-.593ZM3.694 9.593h10.613c-.299 2.923-2.79 4.744-5.314 4.744-2.681 0-5.003-2-5.299-4.744Zm9.26-3.558a.988.988 0 1 1-1.977 0 .988.988 0 0 1 1.976 0Zm-6.92.988a.988.988 0 1 0 0-1.977.988.988 0 0 0 0 1.977Z"/></symbol><symbol fill="none" viewBox="0 0 40 40" id="header-left-arrow" xmlns="http://www.w3.org/2000/svg"><path d="m15 19.5-.434-.414a.6.6 0 0 0 0 .828L15 19.5Zm10.434 10.086-10-10.5-.868.828 10 10.5.869-.828Zm-10-9.672 10-10.5-.869-.828-10 10.5.87.828Z" fill="#545454"/></symbol><symbol fill="none" viewBox="0 0 40 40" id="header-right-arrow" xmlns="http://www.w3.org/2000/svg"><path d="m25 19.5.434.414a.6.6 0 0 0 0-.828L25 19.5ZM14.566 9.414l10 10.5.869-.828-10-10.5-.87.828Zm10 9.672-10 10.5.868.828 10-10.5-.869-.828Z" fill="#545454"/></symbol><symbol viewBox="0 0 40 40" id="header-search" xmlns="http://www.w3.org/2000/svg"><path fill-rule="evenodd" clip-rule="evenodd" d="M25.21 16.705a7.505 7.505 0 1 1-15.01 0 7.505 7.505 0 0 1 15.01 0Zm-1.653 6.444a8.705 8.705 0 1 1 .766-.79l7.678 7.817-.77.784-7.674-7.811Z"/></symbol><symbol viewBox="0 0 100 100" id="home" xmlns="http://www.w3.org/2000/svg"><path d="M50 0c27.614 0 50 22.386 50 50s-22.386 50-50 50S0 77.614 0 50 22.386 0 50 0Zm-.287 20-29.71 27.893h8.914v27.9H42.86V57.197h13.71v18.596h13.943v-27.9h8.914L49.713 20Z" fill-rule="nonzero"/></symbol><symbol fill="none" viewBox="0 0 24 24" id="info" xmlns="http://www.w3.org/2000/svg"><mask id="bfa" style="mask-type:alpha" maskUnits="userSpaceOnUse" x="0" y="0" width="24" height="24"><path fill="#D9D9D9" d="M0 0h24v24H0z"/></mask><g mask="url(#bfa)"><path d="M11.25 16.75h1.5V11h-1.5v5.75ZM12 9.288c.229 0 .42-.077.575-.232a.781.781 0 0 0 .233-.575.782.782 0 0 0-.232-.576.782.782 0 0 0-.576-.232.781.781 0 0 0-.575.232.782.782 0 0 0-.233.576c0 .229.078.42.232.575a.781.781 0 0 0 .576.232Zm.002 12.212a9.255 9.255 0 0 1-3.705-.748 9.598 9.598 0 0 1-3.018-2.03 9.591 9.591 0 0 1-2.03-3.016 9.245 9.245 0 0 1-.749-3.704c0-1.314.25-2.55.748-3.705a9.597 9.597 0 0 1 2.03-3.018 9.592 9.592 0 0 1 3.016-2.03 9.245 9.245 0 0 1 3.704-.749c1.314 0 2.55.25 3.705.748a9.597 9.597 0 0 1 3.018 2.03 9.592 9.592 0 0 1 2.03 3.016 9.245 9.245 0 0 1 .749 3.704c0 1.314-.25 2.55-.748 3.705a9.598 9.598 0 0 1-2.03 3.018 9.592 9.592 0 0 1-3.016 2.03 9.245 9.245 0 0 1-3.704.749ZM12 20c2.233 0 4.125-.775 5.675-2.325C19.225 16.125 20 14.233 20 12c0-2.233-.775-4.125-2.325-5.675C16.125 4.775 14.233 4 12 4c-2.233 0-4.125.775-5.675 2.325C4.775 7.875 4 9.767 4 12c0 2.233.775 4.125 2.325 5.675C7.875 19.225 9.767 20 12 20Z" fill="#8E8E8E"/></g></symbol><symbol viewBox="0 0 24 24" id="instagram-plain" xmlns="http://www.w3.org/2000/svg"><path fill-rule="evenodd" clip-rule="evenodd" d="M19.988 24H4.012A4.021 4.021 0 0 1 0 19.988V4.012A4.021 4.021 0 0 1 4.011 0h15.977A4.021 4.021 0 0 1 24 4.011v15.977A4.009 4.009 0 0 1 19.988 24Zm-7.983-5.835a6.121 6.121 0 0 1-4.357-1.804 6.12 6.12 0 0 1-1.804-4.356 6.12 6.12 0 0 1 1.804-4.357 6.12 6.12 0 0 1 4.357-1.803 6.12 6.12 0 0 1 4.356 1.803 6.12 6.12 0 0 1 1.804 4.357 6.12 6.12 0 0 1-1.804 4.356 6.138 6.138 0 0 1-4.357 1.804Zm0-11.01a4.852 4.852 0 0 0-4.85 4.85 4.852 4.852 0 0 0 4.85 4.85 4.852 4.852 0 0 0 4.849-4.85c-.01-2.671-2.178-4.85-4.85-4.85Zm8.544-2.696a1.183 1.183 0 1 1-2.366 0 1.183 1.183 0 0 1 2.366 0Z"/></symbol><symbol viewBox="0 0 18 18" id="like" xmlns="http://www.w3.org/2000/svg"><path fill-rule="evenodd" clip-rule="evenodd" d="M9 2.094a5.202 5.202 0 0 1 7.057.395c2.057 2.11 2.057 5.524 0 7.634L9 17.359l-7.057-7.236c-2.057-2.11-2.057-5.525 0-7.634A5.231 5.231 0 0 1 5.763.9 5.217 5.217 0 0 1 9 2.094Zm6.198 1.232a4.005 4.005 0 0 0-5.768 0L9 3.767l-.43-.44A4.03 4.03 0 0 0 5.746 2.1a4.031 4.031 0 0 0-2.944 1.226C1.2 4.97 1.2 7.641 2.802 9.285L9 15.64l6.198-6.356c1.603-1.644 1.603-4.315 0-5.959Z"/></symbol><symbol viewBox="0 0 22 22" id="linkedin-plain" xmlns="http://www.w3.org/2000/svg"><path d="M4.968 7.234H.37v14.66h4.597V7.234ZM17.403 6.917a8.249 8.249 0 0 0-.53-.043A5.364 5.364 0 0 0 12.34 8.95c-.137.18-.201.286-.201.286v-1.96H7.743v14.66H12.34v-6.884c0-.996-.074-2.055.424-2.966.424-.763 1.186-1.144 2.044-1.144 2.542 0 2.595 2.298 2.595 2.51V22H22v-9.565c0-3.273-1.663-5.2-4.597-5.518ZM2.67 5.338A2.67 2.67 0 1 0 2.67 0a2.67 2.67 0 0 0 0 5.338Z"/></symbol><symbol viewBox="0 0 40 40" id="login" xmlns="http://www.w3.org/2000/svg"><path fill-rule="evenodd" clip-rule="evenodd" d="M28.977 29.124A12.759 12.759 0 0 1 20 32.8a12.759 12.759 0 0 1-8.977-3.676c1.707-3.213 5.145-5.287 8.976-5.287 3.832 0 7.27 2.074 8.978 5.287Zm1.093-1.221c-2.06-3.403-5.86-5.57-10.07-5.57-4.211 0-8.011 2.167-10.07 5.57A12.745 12.745 0 0 1 7.2 20c0-7.07 5.73-12.8 12.8-12.8S32.8 12.93 32.8 20c0 2.982-1.02 5.727-2.73 7.903ZM34 20c0 7.732-6.268 14-14 14S6 27.732 6 20 12.268 6 20 6s14 6.268 14 14Zm-14-.033a4.633 4.633 0 1 0 0-9.267 4.633 4.633 0 0 0 0 9.267Zm0 1.2A5.833 5.833 0 1 0 20 9.5a5.833 5.833 0 0 0 0 11.667Z"/></symbol><symbol viewBox="0 0 40 40" id="login-reversed" xmlns="http://www.w3.org/2000/svg"><path fill-rule="evenodd" clip-rule="evenodd" d="M20 24.411c3.93 0 7.708 2.458 9.455 5.914A13.949 13.949 0 0 1 20 34a13.95 13.95 0 0 1-9.453-3.673C12.293 26.87 16.068 24.41 20 24.41ZM20 6c7.733 0 14 6.267 14 14 0 3.689-1.426 7.045-3.758 9.545A11.47 11.47 0 0 0 20 23.232a11.468 11.468 0 0 0-10.241 6.313A13.95 13.95 0 0 1 6 20c0-7.732 6.268-14 14-14Zm0 5.015a5.287 5.287 0 1 0 0 10.574 5.286 5.286 0 1 0 0-10.574Z"/><path fill-rule="evenodd" clip-rule="evenodd" d="M24.108 16.303a4.108 4.108 0 1 0-8.216 0 4.108 4.108 0 0 0 8.216 0Z"/></symbol><symbol viewBox="0 0 100 100" id="mail" xmlns="http://www.w3.org/2000/svg"><path d="M100 0v100H0V0h100ZM82.164 32.847 60.75 49.421l11.123 12.853-.327.332L58.66 51.048l-7.856 6.078-7.856-6.078L30.06 62.606l-.327-.332 11.107-12.853-21.397-16.54v40.188h62.72V32.847Zm-1.356-2.291H20.751l30.053 23.232 30.004-23.232Z" fill="#E20000" fill-rule="evenodd"/></symbol><symbol viewBox="0 0 34 26" id="mail-plain" xmlns="http://www.w3.org/2000/svg"><path d="M11.195 12.875 1.156 2.637C.934 3.086.81 3.59.81 4.129v18.156a3.3 3.3 0 0 0 .328 1.445ZM4.047.824a3.19 3.19 0 0 0-1.461.356L16.57 15.438a.6.6 0 0 0 .86 0L31.414 1.18a3.19 3.19 0 0 0-1.46-.356ZM22.79 12.89 32.843 2.638c.222.449.347.953.347 1.492v18.156c0 .52-.117 1.012-.328 1.45Zm0 0"/><path d="M21.355 14.352 31.45 25.215c-.449.238-.957.37-1.496.37H4.047c-.54 0-1.05-.132-1.5-.374l10.078-10.879 2.516 2.563a2.594 2.594 0 0 0 3.718 0Zm0 0"/></symbol><symbol fill="none" viewBox="0 0 48 48" id="nav-arrow-left" xmlns="http://www.w3.org/2000/svg"><rect width="48" height="48" rx="24" fill="#F9FBFF"/><path fill-rule="evenodd" clip-rule="evenodd" d="m21.478 24 5.36-5.361L25.2 17l-5.634 5.634a1.931 1.931 0 0 0 0 2.732L25.2 31l1.639-1.639L21.478 24Z" fill="#080808"/></symbol><symbol fill="none" viewBox="0 0 48 48" id="nav-arrow-right" xmlns="http://www.w3.org/2000/svg"><rect width="48" height="48" rx="24" fill="#F9FBFF"/><path fill-rule="evenodd" clip-rule="evenodd" d="M26.361 24 21 18.639 22.639 17l5.634 5.634a1.931 1.931 0 0 1 0 2.732L22.64 31 21 29.361 26.361 24Z" fill="#080808"/></symbol><symbol viewBox="0 0 19 19" id="navigation-close" xmlns="http://www.w3.org/2000/svg"><g clip-path="url(#bpa)"><path fill-rule="evenodd" clip-rule="evenodd" d="M8.106 9.52.078 17.55l1.414 1.414 8.028-8.029 8.074 8.074 1.414-1.414-8.074-8.074 8.029-8.028L17.549.078 9.52 8.106 1.537.123.123 1.537 8.106 9.52Z"/></g><defs><clipPath id="bpa"><path fill="#fff" d="M0 0h19v19H0z"/></clipPath></defs></symbol><symbol viewBox="-0.85 29.15 44.27 41.64" id="navigation-home" xmlns="http://www.w3.org/2000/svg"><path d="M16.385 69.995V56.662h9.831v13.333h9.996V49.996h6.39L21.301 29.998 0 49.996h6.39v19.999z" fill-rule="evenodd"/></symbol><symbol viewBox="0 0 12 12" id="navigation-less" xmlns="http://www.w3.org/2000/svg"><path d="M12 5v2H0V5h12Z"/></symbol><symbol viewBox="0.22 26.78 56.68 56.68" id="navigation-navigation-search" xmlns="http://www.w3.org/2000/svg"><path d="m36.604 60.785 19.241 19.24-2.357 2.358-19.24-19.241a19.92 19.92 0 0 1-12.915 4.729c-11.043 0-20-8.957-20-20s8.957-20 20-20c11.044 0 20 8.957 20 20 0 4.922-1.779 9.43-4.729 12.914zm-15.27-29.58c-9.19 0-16.667 7.476-16.667 16.666s7.476 16.667 16.666 16.667C30.523 64.538 38 57.06 38 47.87s-7.477-16.667-16.667-16.667z"/></symbol><symbol viewBox="0 0 12 12" id="navigation-open" xmlns="http://www.w3.org/2000/svg"><path fill-rule="evenodd" clip-rule="evenodd" d="M7 5V0H5v5H0v2h5v5h2V7h5V5H7Z"/></symbol><symbol viewBox="0 0 14 14" id="newsticker-clock" xmlns="http://www.w3.org/2000/svg"><path fill-rule="evenodd" clip-rule="evenodd" d="M6.806 0a6.806 6.806 0 1 0 0 13.612A6.806 6.806 0 0 0 6.806 0Zm0 1.512a5.293 5.293 0 1 1 0 10.587 5.293 5.293 0 0 1 0-10.587ZM6.244 3a.626.626 0 0 1 .628.532l.007.093.007 3.347.02.016 1.656 1.646a.64.64 0 0 1 .007.899.626.626 0 0 1-.82.067l-.071-.06-1.291-1.283c-.258-.227-.86-.799-.759-.962l-.007-.093-.007-3.562a.64.64 0 0 1 .63-.64Z"/></symbol><symbol viewBox="14.23 15.73 72.54 69.17" id="newsticker-star-big" xmlns="http://www.w3.org/2000/svg"><path d="M50.521 72.226 28.954 83.564l4.119-24.015-17.448-17.008 24.113-3.504 10.783-21.849 10.784 21.849 24.112 3.504-17.448 17.008 4.119 24.015z"/></symbol><symbol fill="none" viewBox="0 0 32 32" id="player-inactive" xmlns="http://www.w3.org/2000/svg"><circle cx="16" cy="16" r="16" fill="#E0E0E0"/><path d="M13.5 21a.5.5 0 0 0 .809.393l6.364-5a.5.5 0 0 0 0-.786l-6.364-5A.5.5 0 0 0 13.5 11v10Z" fill="#8E8E90" stroke="#8E8E90" stroke-linejoin="round"/></symbol><symbol viewBox="0 0 22 21" id="print-plain" xmlns="http://www.w3.org/2000/svg"><path d="M14 13.5H8V15h6v-1.5ZM8 16h6v1.5H8V16Z"/><path fill-rule="evenodd" clip-rule="evenodd" d="M4 5H1a1 1 0 0 0-1 1v9a1 1 0 0 0 1 1h4v4a1 1 0 0 0 1 1h10a1 1 0 0 0 1-1v-4h4a1 1 0 0 0 1-1V6a1 1 0 0 0-1-1h-3V1a1 1 0 0 0-1-1H5a1 1 0 0 0-1 1v4Zm13 9h2.5a.5.5 0 0 0 .5-.5v-6a.5.5 0 0 0-.5-.5h-17a.5.5 0 0 0-.5.5v6a.5.5 0 0 0 .5.5H5v-3a1 1 0 0 1 1-1h10a1 1 0 0 1 1 1v3ZM15.5 2a.5.5 0 0 1 .5.5V5H6V2.5a.5.5 0 0 1 .5-.5h9ZM7 12h8v7H7v-7Z"/></symbol><symbol viewBox="0 0 18 18" id="sad" xmlns="http://www.w3.org/2000/svg"><path fill-rule="evenodd" clip-rule="evenodd" d="M9 1.686a7.314 7.314 0 1 0 0 14.628A7.314 7.314 0 0 0 9 1.686ZM.5 9a8.5 8.5 0 1 1 17 0 8.5 8.5 0 0 1-17 0Zm12.47.089a.578.578 0 0 0-.017.18.988.988 0 1 0 1.977-.058.578.578 0 0 0-.016-.122.978.978 0 0 0-.06-.201c-.232-.66-.912-1.865-.912-1.865s-.68 1.204-.912 1.865a.985.985 0 0 0-.06.2ZM6.035 7.023a.988.988 0 1 0 0-1.976.988.988 0 0 0 0 1.976Zm6.918-.988a.988.988 0 1 1-1.976 0 .988.988 0 0 1 1.976 0ZM9.156 9.89c-.654 0-1.303.115-1.91.342a5.103 5.103 0 0 0-1.632.982c-.47.424-.848.93-1.106 1.492a.593.593 0 1 0 1.077.495c.189-.409.467-.785.822-1.105.356-.32.781-.577 1.254-.753.472-.176.98-.267 1.495-.267.514 0 1.022.09 1.494.267.473.176.898.433 1.254.753.355.32.634.696.822 1.105a.593.593 0 0 0 1.077-.495 4.595 4.595 0 0 0-1.106-1.492 5.102 5.102 0 0 0-1.632-.982 5.473 5.473 0 0 0-1.91-.342Z"/></symbol><symbol viewBox="0 0 100 100" id="send" xmlns="http://www.w3.org/2000/svg"><g fill="#FFF" fill-rule="nonzero"><path d="m17.778 45.256 24.625 8.855 9.301 25.196 27.27-59.824-61.196 25.773ZM8 45.516l78-32.85-34.643 76-11.73-31.777L8 45.516Z"/><path d="m41.077 58.667-2.41-2.675 19.59-17.325 2.41 2.674z"/></g></symbol><symbol fill="none" viewBox="0 0 54 54" id="spinner" xmlns="http://www.w3.org/2000/svg"><path d="M51 27a24 24 0 1 0-4.368 13.805"/></symbol><symbol viewBox="0 0 24 24" id="tick" xmlns="http://www.w3.org/2000/svg"><path d="M20.293 5.293 9 16.586l-4.293-4.293-1.414 1.414L9 19.414 21.707 6.707l-1.414-1.414z"/></symbol><symbol viewBox="0 0 100 100" id="twitter" xmlns="http://www.w3.org/2000/svg"><path d="M100 0v100H0V0h100ZM64.084 22.222c-7.765 0-14.05 6.405-14.05 14.3 0 1.121.116 2.213.363 3.261-11.684-.59-22.047-6.286-28.97-14.949a14.486 14.486 0 0 0-1.901 7.187 14.39 14.39 0 0 0 6.27 11.909 13.553 13.553 0 0 1-6.386-1.786v.177c0 6.936 4.847 12.706 11.277 14.02a13.926 13.926 0 0 1-3.7.501c-.9 0-1.786-.089-2.642-.266 1.785 5.682 6.98 9.814 13.135 9.932a27.88 27.88 0 0 1-20.813 5.917 38.812 38.812 0 0 0 21.51 6.464c25.878 0 40.014-21.796 40.014-40.7 0-.62-.014-1.24-.043-1.844a28.876 28.876 0 0 0 7.01-7.408 28.045 28.045 0 0 1-8.07 2.257 14.298 14.298 0 0 0 6.183-7.91 27.645 27.645 0 0 1-8.926 3.469c-2.569-2.79-6.226-4.53-10.261-4.53Z" fill="#00ACED" fill-rule="evenodd"/></symbol><symbol viewBox="0 0 18 16" id="twitter-plain" xmlns="http://www.w3.org/2000/svg"><path fill-rule="evenodd" clip-rule="evenodd" d="M6.69 8.512 0 0h5.3l4.13 5.261L13.842.024h2.919l-5.92 7.035L17.861 16h-5.284l-4.472-5.69-4.775 5.674H.395l6.296-7.472Zm6.657 5.91L3.25 1.578h1.279l10.084 12.846h-1.266Z"/></symbol><symbol viewBox="0 0 75 100" id="updated" xmlns="http://www.w3.org/2000/svg"><g fill-rule="evenodd"><path d="M71.933 46.875c-1.209 0-2.19.979-2.19 2.19 0 18.263-14.855 33.12-33.115 33.12-8.322 0-16.344-3.195-22.43-8.8h5.007a2.189 2.189 0 1 0 0-4.38H8.439a2.19 2.19 0 0 0-2.189 2.19v10.767a2.189 2.189 0 1 0 4.379 0v-5.948c6.958 6.706 16.296 10.55 26 10.55 20.674 0 37.493-16.823 37.493-37.5 0-1.21-.98-2.189-2.19-2.189M37.494 16.88a33.018 33.018 0 0 1 19.525 6.387h-4.473a2.189 2.189 0 1 0 0 4.38h10.766c1.208 0 2.189-.98 2.189-2.19V14.69a2.189 2.189 0 1 0-4.379 0v6.243C54.45 15.503 46.15 12.5 37.494 12.5 16.819 12.5 0 29.324 0 50a2.189 2.189 0 1 0 4.379 0c0-18.263 14.855-33.12 33.115-33.12"/></g></symbol><symbol viewBox="0 0 100 100" id="video-360" xmlns="http://www.w3.org/2000/svg"><g fill="#FFF" fill-rule="evenodd"><path d="M50 73.713c-10.919 0-19.853-3.723-19.853-8.272 0-4.55 8.934-8.272 19.853-8.272 5.46 0 10.423.965 13.898 2.482l-10.59 4.411h23.163v-9.65l-7.776 3.24c-4.797-2-11.415-3.24-18.695-3.24-14.558 0-26.47 4.963-26.47 11.03 0 6.065 11.745 11.029 26.47 11.029 12.19 0 22.303-3.393 25.478-8.022h-7.001c-2.82 3.106-10.098 5.264-18.477 5.264Z" fill-rule="nonzero"/><path d="M30.676 50.235c5.324 0 7.589-2.235 7.589-6.588 0-3.088-.677-4.765-3.177-5.5 2.236-.794 2.941-2.265 2.941-4.882 0-3.47-1.853-5.56-7.353-5.56-5.44 0-7.205 2.766-7.529 6.677l4.03.412c.205-2.265 1.117-3.353 3.47-3.353 2.412 0 3.177 1 3.177 2.588 0 1.765-.648 2.706-2.942 2.706H27.53v3.589h3.383c2.264 0 3.176.735 3.176 3.058 0 2.324-1.088 3.236-3.412 3.236-2.44 0-3.411-1.236-3.647-3.706l-4.147.412c.353 4.058 1.912 6.911 7.794 6.911Zm17.53 0c-4.559 0-7.588-2.117-7.588-6.764v-8.236c0-5.147 2.764-7.53 7.5-7.53 4.264 0 7.147 1.53 7.53 6.09l-4.09.381c-.176-2.117-1.234-2.735-3.44-2.735-2.236 0-3.353 1.177-3.353 3.618v2.323c.794-1.058 2.117-1.706 4.264-1.706 4.412 0 6.795 1.912 6.795 6.56v1.117c0 4.882-2.942 6.882-7.618 6.882Zm0-3.735c2.235 0 3.47-1.147 3.47-3.265v-.706c0-2.294-1.235-3.264-3.47-3.264-2.206 0-3.441 1.03-3.441 3.264v.706c0 2.177 1.206 3.265 3.44 3.265Zm17.647 3.735c-4.882 0-7.882-2.382-7.882-7.53v-7.47c0-5.176 3.029-7.53 7.882-7.53s7.853 2.354 7.853 7.53v7.47c0 5.148-3 7.53-7.853 7.53Zm0-3.706c2.588 0 3.53-1.323 3.53-4.058v-6.883c0-2.764-.942-4.088-3.53-4.088-2.618 0-3.559 1.324-3.559 4.088v6.883c0 2.735.941 4.058 3.559 4.058ZM81.44 41c-3.53 0-5.353-1.853-5.353-5.235V32.97c0-3.442 1.794-5.206 5.353-5.206 3.559 0 5.353 1.764 5.353 5.206v2.794C86.794 39.147 85 41 81.441 41Zm0-3c1.588 0 2.235-.794 2.235-2.412v-2.294c0-1.618-.647-2.412-2.235-2.412-1.559 0-2.235.794-2.235 2.412v2.294c0 1.618.676 2.412 2.235 2.412Z"/></g></symbol><symbol fill="none" viewBox="0 0 42 42" id="video-close-recommendations" xmlns="http://www.w3.org/2000/svg"><path d="m21 22.697 18.352 18.351 1.697-1.697L22.697 21 41.05 2.648 39.352.951 21 19.303 2.65.95.952 2.648 19.303 21 .952 39.35l1.697 1.697L21 22.697Z" fill="#F9FBFF"/></symbol><symbol viewBox="0 0 40 40" id="video-counterclockwise" xmlns="http://www.w3.org/2000/svg"><path d="M6 6v7.571a.5.5 0 0 0 .5.5h7.607L6 6Z" fill="currentColor"/><path d="M9.57 30.43A14.704 14.704 0 0 0 20 34.75c8.146 0 14.75-6.604 14.75-14.75S28.146 5.25 20 5.25c-4.073 0-7.76 1.651-10.43 4.32l1.06 1.06A13.209 13.209 0 0 1 20 6.75c7.318 0 13.25 5.932 13.25 13.25S27.318 33.25 20 33.25a13.209 13.209 0 0 1-9.37-3.88l-1.06 1.06Z" fill="currentColor"/></symbol><symbol viewBox="0 0 16 16" id="video-fast-forward" xmlns="http://www.w3.org/2000/svg"><path fill-rule="evenodd" clip-rule="evenodd" d="M8.289 5.093c0-.43.477-.695.854-.475l5.041 2.94a.548.548 0 0 1 0 .952l-5.041 2.94c-.377.22-.854-.046-.854-.475V5.093ZM1.994 5.093c0-.43.477-.695.853-.475l5.042 2.94a.548.548 0 0 1 0 .952l-5.041 2.94c-.377.22-.854-.046-.854-.475V5.093Z"/></symbol><symbol viewBox="0 0 100 100" id="video-oval-bg" xmlns="http://www.w3.org/2000/svg"><circle cx="50" cy="50" r="50" fill="red" fill-rule="evenodd"/></symbol><symbol fill="none" viewBox="0 0 32 32" id="video-play" xmlns="http://www.w3.org/2000/svg"><path d="M25.162 15.252a.857.857 0 0 1 0 1.496l-14.31 7.945a.846.846 0 0 1-1.252-.748V8.055c0-.65.69-1.061 1.253-.748l14.309 7.945Z" fill="#fff"/></symbol><symbol viewBox="0 0 40 40" id="video-play-new" xmlns="http://www.w3.org/2000/svg"><path d="M31.453 19.065c.73.405.73 1.464 0 1.87l-17.887 9.931c-.704.392-1.566-.123-1.566-.934V10.068c0-.811.862-1.325 1.566-.934l17.887 9.931Z" fill="currentColor"/></symbol><symbol viewBox="0 0 100 100" id="video-replay" xmlns="http://www.w3.org/2000/svg"><path d="M47.5 79.188c-14.73 0-26.667-11.938-26.667-26.688 0-14.75 11.938-26.687 26.667-26.687v-9.146L67.5 30l-20 11.604V29.98c-12.417 0-22.52 10.104-22.52 22.521 0 12.417 10.103 22.52 22.52 22.52S70.02 65 70.02 52.5h4.147c0 14.792-11.938 26.688-26.667 26.688Z" fill="#FFF" fill-rule="nonzero"/></symbol><symbol fill="none" viewBox="0 0 32 32" id="video-replay-recommendations" xmlns="http://www.w3.org/2000/svg"><path d="M21.36 15.592a.466.466 0 0 1 0 .816l-7.87 4.334a.465.465 0 0 1-.69-.408v-8.668c0-.354.38-.578.69-.408l7.87 4.334Z" fill="#fff"/><path d="M16 5.4C10.146 5.4 5.4 10.146 5.4 16h3.4l-3.717 3.717a.4.4 0 0 1-.566 0L.8 16h3.4C4.2 9.483 9.483 4.2 16 4.2S27.8 9.483 27.8 16 22.517 27.8 16 27.8c-3.258 0-6.208-1.32-8.344-3.456l.849-.849A10.567 10.567 0 0 0 16 26.6c5.854 0 10.6-4.746 10.6-10.6 0-5.854-4.746-10.6-10.6-10.6Z" fill="#fff"/></symbol><symbol viewBox="0 0 16 16" id="video-restart" xmlns="http://www.w3.org/2000/svg"><path d="M9.871 13.43a5.5 5.5 0 0 1-3.357-.524l.663-1.307A4.033 4.033 0 1 0 5.016 7.37l-1.448-.23a5.5 5.5 0 1 1 6.303 6.29Z"/><path d="M6.203 11.925a.735.735 0 0 0 .322.988l.667-1.31a.735.735 0 0 0-.989.322ZM3.153 8.26V4.147l3.666 2.75-3.654 1.37a.01.01 0 0 1-.012-.009Z"/><path d="m3.153 4.148.275-.367a.458.458 0 0 0-.733.366h.458Zm0 4.111h.458-.458Zm.012.009-.16-.43.16.43Zm3.654-1.37.161.429a.458.458 0 0 0 .114-.796l-.275.367Zm-4.124-2.75v4.111h.916V4.148h-.916Zm.631 4.549 3.654-1.37-.321-.859-3.655 1.37.322.859Zm3.768-2.166L3.428 3.78l-.55.733 3.666 2.75.55-.733Zm-4.4 1.728c0 .327.327.553.632.438l-.322-.858a.45.45 0 0 1 .607.42h-.916Z"/></symbol><symbol viewBox="0 0 100 100" id="videoplayer-close" xmlns="http://www.w3.org/2000/svg"><path d="M90.018 0 48.39 41.347 6.765 0 0 6.716l41.628 41.347L0 89.41l6.765 6.716L48.39 54.78l41.628 41.347 6.762-6.716-41.628-41.347L96.78 6.716z" fill="#FFF" fill-rule="evenodd"/></symbol><symbol viewBox="0 0 100 100" id="weather-cloud" xmlns="http://www.w3.org/2000/svg"><path d="M70.166 33.763c-3.04 0-5.852.856-8.332 2.244-3.652-4.78-9.352-7.912-15.836-7.912-9.972 0-18.168 7.32-19.68 16.868-.652-.116-1.308-.2-1.984-.2-6.444 0-11.668 5.224-11.668 11.664 0 6.444 5.224 11.668 11.668 11.668h45.832c9.484 0 17.168-7.684 17.168-17.168 0-9.48-7.684-17.164-17.168-17.164" fill="#B2C8D1" fill-rule="evenodd"/></symbol><symbol viewBox="0 0 100 100" id="weather-cloud-rain" xmlns="http://www.w3.org/2000/svg"><g fill="none" fill-rule="evenodd"><path d="M70.166 23.763c-3.04 0-5.852.856-8.332 2.244-3.652-4.78-9.352-7.912-15.836-7.912-9.972 0-18.168 7.32-19.68 16.868-.652-.116-1.308-.2-1.984-.2-6.444 0-11.668 5.224-11.668 11.664 0 6.444 5.224 11.668 11.668 11.668h45.832c9.484 0 17.168-7.684 17.168-17.168 0-9.48-7.684-17.164-17.168-17.164" fill="#B2C8D1"/><path fill="#5DB4FF" d="m30.394 88.376-1.88-.688 8.736-24 1.88.688zM42.394 88.376l-1.88-.688 8.736-24 1.88.688zM54.394 88.376l-1.88-.688 8.736-24 1.88.688z"/></g></symbol><symbol viewBox="0 0 100 100" id="weather-cloud-snow" xmlns="http://www.w3.org/2000/svg"><g fill="#B2C8D1" fill-rule="evenodd"><path d="M70.166 19.76c-3.04 0-5.852.86-8.332 2.249-3.652-4.784-9.352-7.912-15.836-7.912-9.972 0-18.168 7.316-19.68 16.864-.652-.112-1.308-.2-1.984-.2-6.444 0-11.668 5.224-11.668 11.668 0 6.44 5.224 11.668 11.668 11.668h45.832c9.484 0 17.168-7.688 17.168-17.168S79.65 19.76 70.166 19.76M35.592 63.198l-1.416-1.416-4.272 4.276v-6.044h-2v6.04l-4.272-4.272-1.412 1.416 4.272 4.272-6.044-.004v2h6.044l-4.272 4.28 1.412 1.412 4.276-4.272v6.044h2v-6.044l4.268 4.272 1.416-1.412-4.272-4.276h6.04v-2h-6.04zM56.613 71.198l-1.416-1.416-4.272 4.276v-6.044h-2v6.04l-4.272-4.272-1.412 1.416 4.272 4.272-6.044-.004v2h6.044l-4.272 4.28 1.412 1.412 4.276-4.272v6.044h2l-.004-6.044 4.272 4.272 1.416-1.412-4.272-4.276h6.04v-2h-6.04zM79.549 67.472h-6.044L77.78 63.2l-1.416-1.416-4.272 4.272v-6.04h-2v6.04l-4.272-4.272-1.416 1.416 4.276 4.272-6.044-.004v2h6.044l-4.276 4.276 1.416 1.416 4.272-4.272v6.04h2v-6.04l4.272 4.272 1.416-1.416-4.276-4.272h6.044z"/></g></symbol><symbol viewBox="0 0 100 100" id="weather-cloud-storm" xmlns="http://www.w3.org/2000/svg"><g fill="none" fill-rule="evenodd"><path d="M70.166 22.76c-3.04 0-5.852.86-8.332 2.249-3.652-4.784-9.352-7.912-15.836-7.912-9.972 0-18.168 7.316-19.68 16.864-.652-.112-1.308-.2-1.984-.2-6.444 0-11.668 5.224-11.668 11.668 0 6.44 5.224 11.668 11.668 11.668h45.832c9.484 0 17.168-7.688 17.168-17.168S79.65 22.76 70.166 22.76" fill="#000"/><path fill="#FFCE00" d="m47.06 79.728 8.244-22.643H42.532l4.856-13.344 1.88.688-3.88 10.656H58.16l-4.61 12.663-4.608 12.664 1.404.51-3.248 1.516-1.516-3.248z"/></g></symbol><symbol viewBox="0 0 100 100" id="weather-sun" xmlns="http://www.w3.org/2000/svg"><g fill="#FFCE00" fill-rule="evenodd"><path d="M66 50.927c0 8.84-7.164 16-16 16s-16-7.16-16-16c0-8.836 7.164-16 16-16s16 7.164 16 16M49 27.596h2v-16h-2zM49 90.264h2v-16h-2zM29.293 40.13l-13.856-8 1-1.736 13.856 8zM83.564 71.462l-13.856-8 1-1.736 13.856 8zM16.436 71.462l-1-1.736 13.856-8 1 1.736zM70.707 40.13l-1-1.736 13.856-8 1 1.736z"/></g></symbol><symbol viewBox="0 0 100 100" id="weather-sun-cloud" xmlns="http://www.w3.org/2000/svg"><g fill="none" fill-rule="evenodd"><path fill="#FFCE00" d="M43.428 32h2V16h-2zM23.72 44.532l-13.855-8 1-1.736 13.856 8zM65.135 44.532l-1-1.736 13.856-8 1 1.736z"/><path d="M72.469 49.763c-7.196 0-13.336 4.432-15.888 10.716-2.216-1.696-4.952-2.74-7.956-2.74-5.56 0-10.292 3.456-12.228 8.328-2.084-3.192-5.668-5.304-9.76-5.304-6.444 0-11.668 5.224-11.668 11.664 0 6.444 5.224 11.668 11.668 11.668h45.832c9.48 0 17.168-7.684 17.168-17.168 0-9.48-7.688-17.164-17.168-17.164" fill="#B2C8D1"/><path d="M35.746 59.189a17.047 17.047 0 0 1 12.68-5.64c2.276 0 4.488.452 6.552 1.336a21.259 21.259 0 0 1 4.928-5.204c-1.74-6.956-7.984-12.132-15.48-12.132-8.836 0-16 7.164-16 16 0 1.012.12 2 .3 2.96 2.54.32 4.952 1.232 7.02 2.68" fill="#FFCE00"/></g></symbol><symbol viewBox="0 0 100 100" id="weather-sun-cloud-rain" xmlns="http://www.w3.org/2000/svg"><g fill="none" fill-rule="evenodd"><path fill="#5DB4FF" d="m32.695 98.376-1.88-.688 8.736-24 1.88.688zM44.695 98.376l-1.88-.688 8.736-24 1.88.688zM56.695 98.376l-1.88-.688 8.736-24 1.88.688z"/><path fill="#FFCE00" d="M43.428 16h2V0h-2zM23.72 28.532l-13.855-8 1-1.736 13.856 8zM65.135 28.532l-1-1.736 13.856-8 1 1.736z"/><path d="M72.469 33.763c-7.196 0-13.336 4.432-15.888 10.716-2.216-1.696-4.952-2.74-7.956-2.74-5.56 0-10.292 3.456-12.228 8.328-2.084-3.192-5.668-5.304-9.76-5.304-6.444 0-11.668 5.224-11.668 11.664 0 6.444 5.224 11.668 11.668 11.668h45.832c9.48 0 17.168-7.684 17.168-17.168 0-9.48-7.688-17.164-17.168-17.164" fill="#B2C8D1"/><path d="M35.746 43.189a17.047 17.047 0 0 1 12.68-5.64c2.276 0 4.488.452 6.552 1.336a21.259 21.259 0 0 1 4.928-5.204c-1.74-6.956-7.984-12.132-15.48-12.132-8.836 0-16 7.164-16 16 0 1.012.12 2 .3 2.96 2.54.32 4.952 1.232 7.02 2.68" fill="#FFCE00"/></g></symbol><symbol viewBox="0 0 100 100" id="weather-sun-cloud-rain-storm" xmlns="http://www.w3.org/2000/svg"><g fill="none" fill-rule="evenodd"><path fill="#5DB4FF" d="m30.816 97.689 1.88.688 8.736-23.996-1.88-.688zM42.815 97.689l1.88.688L53.43 74.38l-1.88-.688z"/><path fill="#FFCE00" d="M43.428 16h2V0h-2zM23.72 28.534l-13.855-8 1-1.736 13.856 8zM65.135 28.534l-1-1.736 13.856-8 1 1.736z"/><path d="M72.469 33.76c-7.196 0-13.336 4.437-15.888 10.717-2.216-1.692-4.952-2.736-7.956-2.736-5.56 0-10.292 3.452-12.228 8.324-2.084-3.188-5.668-5.304-9.76-5.304-6.444 0-11.668 5.228-11.668 11.668 0 6.44 5.224 11.668 11.668 11.668h45.832c9.48 0 17.168-7.688 17.168-17.168S81.949 33.76 72.469 33.76" fill="#000"/><path d="M35.746 43.19a17.051 17.051 0 0 1 12.68-5.644c2.276 0 4.488.456 6.552 1.336 1.34-2.02 3.02-3.76 4.928-5.2-1.74-6.96-7.984-12.136-15.48-12.136-8.836 0-16 7.164-16 16 0 1.016.12 2 .3 2.96 2.54.324 4.952 1.236 7.02 2.684M57.348 90.728l8.243-22.643H52.819l4.856-13.344 1.88.688-3.88 10.656h12.772l-9.218 25.327 1.404.51-3.252 1.516-1.512-3.248z" fill="#FFCE00"/></g></symbol><symbol viewBox="0 0 100 100" id="weather-sun-cloud-snow" xmlns="http://www.w3.org/2000/svg"><g fill="none" fill-rule="evenodd"><path d="M44.426 21.546c7.496 0 13.74 5.176 15.48 12.136a21.241 21.241 0 0 0-4.928 5.2 16.646 16.646 0 0 0-6.552-1.336c-4.924 0-9.5 2.112-12.68 5.644-2.068-1.448-4.48-2.36-7.02-2.684-.18-.96-.3-1.944-.3-2.96 0-8.836 7.164-16 16-16Zm-33.561-2.748 13.856 8-1 1.736-13.856-8 1-1.736Zm67.126 0 1 1.736-13.856 8-1-1.736 13.856-8ZM45.428 0v16h-2V0h2Z" fill="#FFCE00"/><g fill="#B2C8D1"><path d="M72.469 33.76c-7.196 0-13.336 4.437-15.888 10.717-2.216-1.692-4.952-2.736-7.956-2.736-5.56 0-10.292 3.452-12.228 8.324-2.084-3.188-5.668-5.304-9.76-5.304-6.444 0-11.668 5.228-11.668 11.668 0 6.44 5.224 11.668 11.668 11.668h45.832c9.48 0 17.168-7.688 17.168-17.168S81.949 33.76 72.469 33.76M32.209 84.888v6.04h-2v-6.042l-4.273 4.273-1.416-1.416 4.274-4.274-6.042-.001v-2l6.038.001-4.27-4.27 1.416-1.416 4.273 4.273v-6.043h2v6.041l4.27-4.27 1.417 1.415-4.271 4.271 6.039.002v2l-6.04-.002 4.272 4.273-1.416 1.416-4.271-4.271zM53.23 92.888v6.04h-2v-6.042l-4.273 4.273-1.416-1.416 4.274-4.274-6.041-.001v-2l6.038.001-4.27-4.27 1.416-1.416 4.272 4.273v-6.043h2v6.041l4.271-4.27 1.416 1.415-4.27 4.271 6.039.002v2l-6.041-.002 4.273 4.273-1.416 1.416zM74.396 84.888v6.04h-2v-6.042l-4.273 4.273-1.416-1.416 4.274-4.274-6.041-.001v-2l6.038.001-4.27-4.27 1.416-1.416 4.272 4.273v-6.043h2v6.041l4.271-4.27 1.416 1.415-4.27 4.271 6.039.002v2l-6.041-.002 4.273 4.273-1.416 1.416z"/></g></g></symbol><symbol viewBox="0 0 100 100" id="whatsapp" xmlns="http://www.w3.org/2000/svg"><path d="M100 0v100H0V0h100ZM51.03 16.667c-16.822 0-30.46 13.757-30.46 30.729a30.793 30.793 0 0 0 4.372 15.867L19.444 79.75l16.864-5.447a30.126 30.126 0 0 0 14.721 3.822c16.823 0 30.46-13.759 30.46-30.729 0-16.972-13.637-30.73-30.46-30.73Zm-8.675 15.696c.453.018 1.134-.096 1.724 1.498.59 1.595 2 5.514 2.18 5.913.18.4.292.863.015 1.376-.28.514-.422.835-.826 1.279-.406.443-.855.991-1.218 1.33-.404.376-.826.785-.401 1.587.425.802 1.89 3.43 4.124 5.595 2.87 2.784 5.345 3.708 6.107 4.128.764.423 1.22.376 1.693-.13.472-.507 2.028-2.218 2.576-2.981.547-.766 1.06-.616 1.764-.328.325.133 1.299.64 2.328 1.189l.517.276c.946.507 1.855 1.003 2.272 1.232l.1.056c.764.42 1.274.638 1.456.971.183.336.125 1.906-.591 3.712-.717 1.806-3.957 3.455-5.387 3.53a3.986 3.986 0 0 0-.603.087l-.115.023c-.998.203-2.212.371-8.54-2.424-7.786-3.44-12.47-11.806-12.84-12.344-.37-.537-3.016-4.372-2.874-8.232.127-3.392 1.747-5.21 2.642-6.114l.252-.252.07-.072a2.957 2.957 0 0 1 2.11-.903c.614-.01 1.01-.019 1.465-.002Z" fill="#48CB57" fill-rule="evenodd"/></symbol><symbol viewBox="0 0 21 20" id="whatsapp-plain" xmlns="http://www.w3.org/2000/svg"><path fill-rule="evenodd" clip-rule="evenodd" d="M17.127 2.96a9.29 9.29 0 0 1 2.129 2.95 8.698 8.698 0 0 1 .774 3.637 8.793 8.793 0 0 1-.782 3.629 9.291 9.291 0 0 1-2.129 2.951 9.907 9.907 0 0 1-3.145 1.984 10.34 10.34 0 0 1-3.838.726c-1.427 0-2.79-.274-4.072-.823l-4.29 1.911.806-4.395C1.072 13.854.25 11.74.25 9.54c0-1.259.266-2.484.782-3.63a9.29 9.29 0 0 1 2.129-2.95A9.907 9.907 0 0 1 6.306.975 10.34 10.34 0 0 1 10.144.25c1.33 0 2.62.242 3.838.726a10.051 10.051 0 0 1 3.145 1.983Zm-3.91 8.015c.217.08.524.21.943.419.113.058.232.107.352.156.196.08.395.162.575.287.145.194.186.355.089.783-1.903 4.918-11.257-2.218-9.7-5.968.257-.588.886-1.717 1.983-1.153.171.086.243.268.315.449.036.091.072.182.12.26.107.223.222.477.322.696l.154.337c.013.048.04.101.07.16.113.228.271.545-.126.993-.035.066-.112.149-.195.24-.153.164-.329.354-.313.51.129.234.725 1.105 1.048 1.411.726.702 1.653 1.387 2.653 1.58.236-.089.464-.408.683-.715.155-.218.307-.43.454-.55.096-.076.346.019.502.078l.07.027Z"/></symbol></svg>